<svg xmlns="http://www.w3.org/2000/svg" version="1.1" style="font-family:Lato, &#x27;Helvetica Neue&#x27;, Helvetica, Arial, sans-serif;font-size:18px;background-color:white;text-rendering:optimizeLegibility;-webkit-font-smoothing:antialiased" width="850" height="600"><g class="HeaderView"><g transform="translate(774, 15) scale(0.29)"><svg width="210" height="120" viewBox="0 0 210 120" fill="none" xmlns="http://www.w3.org/2000/svg"><defs>
        <clipPath id="clip0">
            <rect width="210" height="120" fill="white"/>
        </clipPath>
    </defs>
</svg></g><a href="https://ourworldindata.org/grapher/supercomputer-power-flops" target="_blank"><text font-size="25.20" x="15.0" y="35.2" fill="#555"><tspan x="15" y="35.160000000000004">Supercomputer Power (FLOPS)</tspan></text></a><text font-size="14.40" x="15.0" y="53.7" fill="#666"><tspan x="15" y="53.72">The growth of supercomputer power, measured as the number of floating-point operations carried out per second</tspan><tspan x="15" y="69.56">(FLOPS) by the largest supercomputer in any given year. (FLOPS) is a measure of calculations per second for</tspan><tspan x="15" y="85.4">floating-point operations. Floating-point operations are needed for very large or very small real numbers, or</tspan><tspan x="15" y="101.24000000000001">computations that require a large dynamic range. It is therefore a more accurate measured than simply instructions</tspan><tspan x="15" y="117.08000000000001">per second.</tspan></text></g><g class="LineChart"><defs><clipPath id="boundsClip-15"><rect x="106.714" y="0" width="830" height="839.8"></rect></clipPath></defs><g class="AxisBoxView"><g class="HorizontalAxis"><text x="116.7" y="556.5" fill="#666" text-anchor="middle" font-size="16.2">1993</text><text x="170.7" y="556.5" fill="#666" text-anchor="middle" font-size="16.2">1995</text><text x="305.7" y="556.5" fill="#666" text-anchor="middle" font-size="16.2">2000</text><text x="440.7" y="556.5" fill="#666" text-anchor="middle" font-size="16.2">2005</text><text x="575.8" y="556.5" fill="#666" text-anchor="middle" font-size="16.2">2010</text><text x="710.8" y="556.5" fill="#666" text-anchor="middle" font-size="16.2">2015</text><text x="764.8" y="556.5" fill="#666" text-anchor="middle" font-size="16.2">2017</text></g><g class="VerticalAxis"><text x="111.71" y="473.8" fill="#666" dominant-baseline="middle" text-anchor="end" font-size="16.2">1 trillion</text><text x="111.71" y="405.9" fill="#666" dominant-baseline="middle" text-anchor="end" font-size="16.2">10 trillion</text><text x="111.71" y="338.1" fill="#666" dominant-baseline="middle" text-anchor="end" font-size="16.2">100 trillion</text><text x="111.71" y="270.2" fill="#666" dominant-baseline="middle" text-anchor="end" font-size="16.2">1,000 trillion</text><text x="111.71" y="202.3" fill="#666" dominant-baseline="middle" text-anchor="end" font-size="16.2">10,000 trillion</text></g><g class="AxisGridLines"><line x1="116.71" y1="473.8" x2="764.76" y2="473.8" stroke="#ddd" stroke-dasharray="3,2"></line><line x1="116.71" y1="405.9" x2="764.76" y2="405.9" stroke="#ddd" stroke-dasharray="3,2"></line><line x1="116.71" y1="338.1" x2="764.76" y2="338.1" stroke="#ddd" stroke-dasharray="3,2"></line><line x1="116.71" y1="270.2" x2="764.76" y2="270.2" stroke="#ddd" stroke-dasharray="3,2"></line><line x1="116.71" y1="202.3" x2="764.76" y2="202.3" stroke="#ddd" stroke-dasharray="3,2"></line></g></g><g clip-path="url(#boundsClip-15)"><g class="HeightedLegend" style="cursor:default"><g class="legendMark"><rect x="764.765" y="136.60000000000002" width="70.235" height="13.5" fill="#fff" opacity="0"></rect><text font-size="13.50" x="768.8" y="147.4" fill="#3360a9"><tspan x="768.765" y="147.40000000000003">World</tspan></text></g></g><g class="Lines"><rect x="117" y="137" width="648" height="399" fill="rgba(255,255,255,0)" opacity="0"></rect><g class="key-World_0"><path stroke="#3360a9" stroke-linecap="round" d="M117 535L144 526L171 526L198 503L225 466L252 466L279 448L306 427L333 416L360 368L387 368L414 348L441 308L468 308L495 292L522 267L549 253L576 242L603 201L630 186L657 166L684 166L711 166L738 137L765 137" fill="none" stroke-width="1.5"></path><g fill="#3360a9"><circle cx="117" cy="535" r="2"></circle><circle cx="144" cy="526" r="2"></circle><circle cx="171" cy="526" r="2"></circle><circle cx="198" cy="503" r="2"></circle><circle cx="225" cy="466" r="2"></circle><circle cx="252" cy="466" r="2"></circle><circle cx="279" cy="448" r="2"></circle><circle cx="306" cy="427" r="2"></circle><circle cx="333" cy="416" r="2"></circle><circle cx="360" cy="368" r="2"></circle><circle cx="387" cy="368" r="2"></circle><circle cx="414" cy="348" r="2"></circle><circle cx="441" cy="308" r="2"></circle><circle cx="468" cy="308" r="2"></circle><circle cx="495" cy="292" r="2"></circle><circle cx="522" cy="267" r="2"></circle><circle cx="549" cy="253" r="2"></circle><circle cx="576" cy="242" r="2"></circle><circle cx="603" cy="201" r="2"></circle><circle cx="630" cy="186" r="2"></circle><circle cx="657" cy="166" r="2"></circle><circle cx="684" cy="166" r="2"></circle><circle cx="711" cy="166" r="2"></circle><circle cx="738" cy="137" r="2"></circle><circle cx="765" cy="137" r="2"></circle></g></g></g></g></g><g class="SourcesFooter" style="fill:#777"><g class="clickable" style="fill:#777"><text font-size="12.60" x="15.0" y="581.6"><tspan x="15" y="581.58">Source: TOP500 Supercomputer Database</tspan></text></g><text font-size="12.60" x="796.4" y="581.6"><tspan x="796.444" y="581.58"><a style="fill: #777;" class="cclogo" href="http://creativecommons.org/licenses/by/4.0/deed.en_US" target="_blank">CC BY</a></tspan></text></g></svg>